# xmcd CD database file
#
# Track frame offsets:
#	150
#	26605
#	48286
#	74741
#
# Disc length: 1285 seconds
#
# Revision: 0
# Processed by: cddbd v1.5.1PL2 Copyright (c) Steve Scherf et al.
# Submitted via: CDex 1.51
#
DISCID=33050304
DTITLE=舞 - Reborn (Single)
DYEAR=2005
DGENRE=Pop
TTITLE0=Reborn
TTITLE1=Squair
TTITLE2=Reborn (Instrumental)
TTITLE3=Squair (Instrumental)
EXTD=YEAR: 2005
EXTT0=
EXTT1=
EXTT2=
EXTT3=
PLAYORDER=
